<svg id="Capa_1" data-name="Capa 1" xmlns="http://www.w3.org/2000/svg" viewBox="0 0 800 500"><defs><style>.cls-1{font-size:59px;font-family:SourceSerifPro-Regular, Source Serif Pro;}.cls-2{letter-spacing:-0.01em;}.cls-3{letter-spacing:-0.03em;}.cls-4{letter-spacing:-0.02em;}.cls-5{letter-spacing:-0.02em;}.cls-6{letter-spacing:-0.02em;}.cls-7{letter-spacing:-0.02em;}.cls-8{letter-spacing:0.01em;}</style></defs><text class="cls-1" transform="translate(160.55 127.87)"><tspan class="cls-2">AB</tspan><tspan x="75.11" y="0">C</tspan><tspan class="cls-3" x="112.33" y="0">D</tspan><tspan x="152.46" y="0">E</tspan><tspan class="cls-2" x="188.03" y="0">FG</tspan><tspan x="261.25" y="0">HIJK</tspan><tspan class="cls-2" x="391.11" y="0">L</tspan><tspan x="425.68" y="0">M</tspan><tspan x="-35.72" y="70.8">N</tspan><tspan class="cls-4" x="7.64" y="70.8">Ñ</tspan><tspan class="cls-5" x="49.82" y="70.8">O</tspan><tspan x="90.12" y="70.8">P</tspan><tspan class="cls-5" x="124.87" y="70.8">Q</tspan><tspan x="165.17" y="70.8">R</tspan><tspan class="cls-2" x="203.58" y="70.8">ST</tspan><tspan class="cls-6" x="268.24" y="70.8">U</tspan><tspan x="310.01" y="70.8">VWXYZ</tspan><tspan x="49.92" y="141.6">abcd</tspan><tspan class="cls-2" x="176.23" y="141.6">e</tspan><tspan x="205.73" y="141.6">f</tspan><tspan class="cls-2" x="226.62" y="141.6">g</tspan><tspan x="256.59" y="141.6">hijklm</tspan><tspan x="21.18" y="212.4">nñ</tspan><tspan class="cls-2" x="92.69" y="212.4">o</tspan><tspan x="124.49" y="212.4">pq</tspan><tspan class="cls-2" x="191.75" y="212.4">r</tspan><tspan x="216.11" y="212.4">st</tspan><tspan class="cls-7" x="260.89" y="212.4">u</tspan><tspan class="cls-8" x="294.11" y="212.4">v</tspan><tspan x="324.5" y="212.4">wxyz</tspan><tspan x="91.95" y="283.2">1234567890</tspan></text></svg>